<?xml version="1.0" encoding="utf-8"?>
<!-- Generator: Adobe Illustrator 27.8.1, SVG Export Plug-In . SVG Version: 6.00 Build 0)  -->
<svg version="1.1" id="Layer_1" xmlns="http://www.w3.org/2000/svg" xmlns:xlink="http://www.w3.org/1999/xlink" x="0px" y="0px"
	 viewBox="0 0 1975.2 2187.2" style="enable-background:new 0 0 1975.2 2187.2;" xml:space="preserve">
<style type="text/css">
	.st0{fill:#ffffff;}
</style>
<g>
	<path class="st0" d="M1947.1,1297c-0.7,3.1-1.9,6.1-2,9.2c-0.9,30.6-10.1,58.9-22.8,86.4c-19.7,42.7-50,76.1-89.6,101.1
		c-22.1,14-44.7,27.3-67.5,40c-7.5,4.2-10,9-9.8,17.4c0.5,22.4,0.2,44.7,0.2,67.1c0,62.6-20.4,117.6-61.6,164.9
		c-40.8,46.9-92.3,73.5-153.7,81.2c-9.5,1.2-19.1,1.7-28.6,1.8c-24,0.2-47.9,0.3-71.9,0c-5.9-0.1-9.3,2-12.1,7
		c-12.1,21.8-24.2,43.5-36.9,64.9c-33.2,56.1-80.8,94.1-143.7,111.8c-66.6,18.7-130.1,10.3-190.3-23.8c-19.7-11.2-39.3-22.6-58.9-34
		c-2.8-1.6-5.6-3.1-8.7-4.9c-3.1,1.7-6.2,3.2-9.2,5c-20.8,11.9-41.4,24.1-62.3,35.8c-38.7,21.8-80.4,32.7-124.7,31.3
		c-65.3-2-121.9-25.6-168.3-72c-15.6-15.6-28.7-33.4-39.6-52.7c-10.8-19.2-22.2-38.1-32.4-57.6c-4.3-8.1-9.3-11.3-18.6-11
		c-24.6,0.7-49.2,0.8-73.8,0.1c-66-1.8-122.6-26.4-168.3-73.8c-39.8-41.3-63.3-90.9-68.4-148.5c-0.8-8.9-1.3-17.8-1.4-26.8
		c-0.2-22.4-0.4-44.7,0.1-67.1c0.2-7.6-2-12.1-8.9-15.9c-18.5-10.1-36.8-20.6-54.8-31.5c-24.6-15-47.7-32.1-66.6-54.2
		c-36.1-42.1-56.1-90.9-60.1-146.2c-3.8-52.3,8.3-100.7,34.7-145.8c11.3-19.3,21.9-38.9,33.3-58.2c2.8-4.8,2.7-8.4-0.1-13.1
		c-12-20.3-24-40.7-35.4-61.4c-15.4-27.9-26.4-57.3-30.7-89.1c-4.7-34-2.6-67.5,6.2-100.6c10.2-38.4,29.1-71.9,55.3-101.7
		c17.3-19.7,37.5-35.5,60-48.6c19.9-11.6,39.7-23.2,59.8-34.4c5.6-3.1,7.4-6.7,7.3-12.9c-0.3-24-0.7-48,0-71.9
		c3-99.5,47.7-173.4,135.6-221c33.9-18.4,70.2-26.2,108.5-26.3c23.6-0.1,47.3-0.3,70.9,0.1c6.7,0.1,10.4-2.2,13.6-7.9
		c13-23.4,26-47,40-69.8c22.3-36.5,53.1-64.2,90.3-85.2c25.7-14.5,52.9-23.6,81.9-27.9c47-7,92.6-1.1,135.4,19.4
		c27,13,52.3,29.4,78.3,44.3c12.3,7.1,12.3,7.1,24.6,0c25.5-14.6,50.7-29.6,76.5-43.6c18.3-9.9,38.5-15.3,59-19
		c47.1-8.3,93.1-3.9,136.9,15.2c47.4,20.6,86.3,52.1,113.4,96.6c13.8,22.6,26.7,45.8,39.5,69c3.5,6.4,7.5,9,15,8.8
		c24.3-0.5,48.6-0.2,72.8-0.2c31,0,61.2,5.7,89.4,18.2c47.1,21,86.3,52.1,113.7,96.4c23.6,38.2,37.2,79.7,37.8,125
		c0.3,26.2,0.4,52.4,0.1,78.6c-0.1,7,2.3,10.9,8.3,14.3c20.6,11.5,41.2,23.2,61.4,35.4c67.2,40.7,106.2,100.5,119,177.8
		c1.3,7.8,1.9,15.7,2.9,23.6c0,8.3,0,16.6,0,24.9c-0.7,4-1.7,8-2.1,12.1c-0.6,5-0.6,10.2-1.3,15.2c-4.7,31.6-16.3,60.8-32,88.5
		c-10.6,18.9-21.4,37.7-32.6,56.2c-3.6,5.9-3.6,10.5-0.1,16.5c12.2,20.6,23.8,41.4,35.5,62.3c17.5,31.3,28.7,64.5,30.5,100.6
		c0.2,3.1,1.3,6.1,2.1,9.2C1947.1,1280.3,1947.1,1288.7,1947.1,1297z M242.4,1091.3c0,64.6,0,129.1-0.1,193.7
		c0,5.6,0.9,10.5,3.8,15.5c22.1,38.5,43.9,77.2,65.8,115.8c16.6,29.1,33.2,58.2,49.9,87.3c25.7,44.9,51.4,89.8,77.3,134.6
		c2.1,3.7,5.5,7.1,9.1,9.3c28.2,16.9,56.5,33.6,84.9,50.2c54.3,31.7,108.6,63.4,162.9,95c28.1,16.4,56.4,32.5,84.5,49
		c5.7,3.4,11.5,4.7,18.1,4.6c127.2-0.1,254.3-0.1,381.5,0c6.3,0,11.7-1.2,17.2-4.5c32.4-19.2,64.8-38.3,97.4-57.3
		c55.9-32.7,111.9-65.3,167.9-97.9c21.2-12.4,42.5-24.7,63.9-36.8c6.3-3.6,11.1-8,14.6-14.5c8.3-15.5,17.1-30.7,25.8-45.9
		c37-64.9,74.1-129.8,111.2-194.6c17.9-31.3,35.7-62.7,53.8-94c2.8-4.9,4.1-9.8,4.1-15.4c-0.1-129.1-0.1-258.2,0-387.4
		c0-5.7-1.5-10.5-4.3-15.4c-31.1-54.3-62-108.7-93.1-163.1c-31.4-54.9-63.2-109.5-94.2-164.7c-6.2-11.1-14.5-18.9-25.2-25.1
		c-57.1-33.2-114.1-66.6-171.2-99.8c-49.7-28.9-99.6-57.3-149.2-86.4c-7.5-4.4-14.7-6.2-23.2-6.2c-124.6,0.2-249.2,0.2-373.8,0
		c-8.2,0-15.1,1.7-22.3,6c-56.3,33.4-112.8,66.2-169.4,99.1c-49.7,28.9-99.5,57.5-149.3,86.2c-11.8,6.8-21.1,15.2-27.9,27.6
		c-33,59.1-66.8,117.8-100.4,176.5c-28.2,49.3-56.5,98.7-84.9,147.9c-3.7,6.3-5.3,12.6-5.2,19.9
		C242.5,964.1,242.4,1027.7,242.4,1091.3z M968.2,1974.1c-8-4.6-15.1-8.7-22.2-12.9c-51.5-30.1-103-60.2-154.5-90.3
		c-4.7-2.8-9.4-4.8-15.2-4.8c-65.5,0.2-131,0.1-196.4,0.1c-2.7,0-5.4,0.5-8.7,0.8c0.9,2.4,1.3,4,2,5.3
		c11.5,20.2,22.9,40.6,34.7,60.7c12.1,20.6,27.7,38.7,46,53.6c58.7,47.6,125.4,63.3,199.3,45.7c38.3-9.1,70.4-30.9,103.6-50.5
		C960.3,1979.8,963.5,1977.3,968.2,1974.1z M1862.8,1113.8c-2.5,3.9-4.3,6.4-5.8,9.1c-19.7,34.3-39.3,68.7-59,103
		c-12.5,21.9-25,43.8-37.8,65.5c-3.2,5.4-4.8,10.8-4.7,17.2c0.2,17.6,0.1,35.1,0.1,52.7c0,47.3,0,94.5,0,141.8
		c0,3.6,0.5,7.3,0.9,12.3c4.4-2.4,7.2-3.8,9.8-5.4c17-10.1,34-20.2,50.9-30.4c34.6-21,62.4-48.5,81.2-84.6
		c38.1-73,38.2-146.2,0.5-219.3c-10-19.3-21.5-37.7-32.3-56.5C1865.7,1117.9,1864.8,1116.7,1862.8,1113.8z M1862.8,1070.2
		c2.3-3.3,4-5.4,5.4-7.8c10.5-18.6,21.4-37,31.4-55.9c33.2-62.4,35.9-127,10.8-192.5c-18.2-47.5-50.5-83.9-93.8-110.4
		c-17.7-10.8-35.8-20.9-53.8-31.3c-1.8-1-3.8-1.4-6.4-2.4c-0.3,3.4-0.7,5.9-0.7,8.4c0,66.1-0.1,132.3,0.1,198.4
		c0,4.5,1.5,9.4,3.6,13.5c6,11.6,12.6,22.9,19.1,34.3c26.1,45.7,52.3,91.4,78.6,137.1C1858.6,1064.3,1860.5,1066.7,1862.8,1070.2z
		 M1009.9,1974.4c24.1,16.1,47.4,29.9,71.7,42c41.1,20.5,84.8,27.6,130.2,20.8c60.1-9.1,109.7-37.2,145.9-86.4
		c15.2-20.7,27.2-43.9,40.5-66c3.2-5.3,5.9-11,9.5-17.7c-4.6-0.3-7.7-0.7-10.7-0.7c-64.8,0-129.6,0-194.5-0.1c-5.3,0-10,1.2-14.4,4
		c-10.6,6.5-21.1,13.1-31.9,19.3c-44.7,25.9-89.5,51.8-134.2,77.6C1018.4,1969.3,1014.9,1971.4,1009.9,1974.4z M1734.7,632.2
		c0.5-3.3,1.1-5.7,1.1-8.1c-0.2-23.9,0.6-48-0.9-71.8c-5-78.8-41.3-139.6-108-181.7c-31-19.6-65.6-29.9-101.9-32.5
		c-24.1-1.7-48.5-0.5-72.8-0.6c-2.3,0-4.7,0.6-7.8,1.1c1.3,2.9,2.1,5,3.1,6.8c33.2,57.9,66.3,115.7,99.6,173.5
		c1.7,2.9,4.1,5.7,6.9,7.6c8.2,5.5,16.6,10.6,25.2,15.6c47.8,27.7,95.6,55.2,143.3,82.9C1726.4,627.1,1730.1,629.4,1734.7,632.2z
		 M1444.4,1845.5c3.9,0.3,6.4,0.6,8.9,0.6c23,0,46,0.2,69-0.4c9.5-0.2,19.1-1.4,28.5-3.1c49-8.9,90.5-31.6,124.2-68.5
		c36.6-39.9,57-86.7,59.8-140.7c1.3-24.5,0.7-49.2,0.9-73.8c0-2.1-0.6-4.2-1.1-7.5c-3.9,2.1-7,3.6-9.9,5.3
		c-24.2,14.2-48.3,28.6-72.6,42.8c-31.4,18.3-62.9,36.6-94.6,54.6c-5.2,3-9,6.7-11.8,12c-6.4,11.8-13,23.5-19.6,35.1
		c-25.7,44.9-51.5,89.8-77.2,134.6C1447.6,1839,1446.4,1841.6,1444.4,1845.5z M116,1069.8c2.2-3.5,4.3-6.6,6.1-9.9
		c9.9-17.5,19.7-35.1,29.7-52.5c22.2-38.8,44.3-77.6,66.7-116.3c2.7-4.6,3.8-9.2,3.8-14.5c-0.1-65.5-0.1-131-0.1-196.5
		c0-3.1-0.3-6.1-0.5-10.6c-4.1,2.1-7.2,3.6-10.2,5.2c-14.4,8.3-28.7,16.6-43.1,24.9c-15.8,9.1-30.5,19.5-43.9,32.1
		c-30.2,28.5-51.8,62-63.5,102c-14,47.8-13.4,95.3,3.6,142.1c12.1,33.2,31.4,62.7,49.3,92.9C114.1,1068.8,114.5,1068.9,116,1069.8z
		 M243,1552.5c-0.2,3.7-0.6,6.5-0.6,9.3c0,19.8-0.2,39.6,0,59.4c0.9,69.1,28.1,126.5,79.7,171.7c39,34.2,85.3,51.6,137.2,53
		c22.3,0.6,44.7,0.2,67,0.2c2.1,0,4.1-0.5,7.1-0.9c-1.9-3.6-3.2-6.4-4.7-9.1c-8.6-14.9-17.3-29.8-25.8-44.8
		c-24.2-42.4-48.2-84.9-72.5-127.2c-1.8-3.1-4.9-6-8-7.8c-57.2-33.6-114.5-66.9-171.8-100.3C248.5,1554.6,246.1,1553.8,243,1552.5z
		 M534.4,337.4c-5.2,0-8.1,0-10.9,0c-17.9,0-35.8,0.3-53.6-0.1c-16.1-0.4-31.8,1.9-47.4,5.3c-63.7,14-113.1,48.2-147.2,104.1
		c-20,32.8-31.1,68.5-32.5,106.9c-0.9,23.9-0.3,47.9-0.3,71.8c0,2,0.7,4,1.2,6.7c4.1-2.5,7.2-4.5,10.5-6.4
		c55.4-32.3,110.7-64.7,166.1-96.8c5.2-3,9-6.7,11.9-11.9c17.6-31.1,35.3-62.1,53.1-93.1c14.6-25.5,29.3-50.9,44-76.3
		C530.8,344.8,532.1,342,534.4,337.4z M570.1,317.2c5.8,0,9.3,0,12.8,0c63.2,0,126.5-0.1,189.7,0.1c7.3,0,13.6-1.6,19.9-5.3
		c45.9-27.1,91.9-53.9,137.9-80.7c9.9-5.8,19.9-11.5,29.8-17.3c2.4-1.4,4.6-3.1,7.6-5c-3.3-2.1-5.6-3.8-8.1-5.2
		c-16-9.3-32.2-18.3-48.1-27.8c-27.3-16.2-57-25.2-88.1-30.1c-20.7-3.3-41.2-2-61.8,2.1c-28.1,5.5-54.8,14.5-79.4,29.4
		c-28,16.9-51.9,38.4-69.5,66.1c-13,20.5-24.6,41.8-36.8,62.8C574.2,309.1,572.7,312.2,570.1,317.2z M1407.4,316.7
		c-1.6-3.6-2.4-5.7-3.5-7.6c-11.7-20.2-23.5-40.2-35.2-60.4c-8.9-15.4-20.5-28.4-32.9-40.9c-46.2-46.7-131.7-74.2-192.8-60
		c-26.6,6.2-52.2,14.2-76,27.9c-16.3,9.4-32.6,18.8-48.9,28.2c-2.4,1.4-4.6,3.1-7.5,5c2.4,1.8,4.1,3.3,5.9,4.4
		c20.3,12.1,40.5,24.2,60.9,36.1c36.7,21.3,73.5,42.4,110.2,63.7c4.8,2.8,9.7,4.1,15.4,4.1c64.5-0.1,129-0.1,193.5-0.1
		C1399.7,317.2,1402.8,316.9,1407.4,316.7z M221.7,1515.7c0.3-4.7,0.5-7.2,0.5-9.7c0-66.5,0-132.9,0.1-199.4c0-5.4-1.5-9.8-4.1-14.4
		c-32.5-56.4-64.9-112.9-97.3-169.4c-1.5-2.7-3.3-5.3-5.5-8.9c-2.2,3.3-3.8,5.6-5.2,8c-9.3,16-18.7,32-27.8,48.1
		c-23.6,41.7-34.1,86.3-30.1,134.3c3.6,42.8,18.4,81.4,43.2,116.1c18.5,25.8,42.3,46,69.7,61.9c10.5,6.1,20.7,12.6,31.1,18.8
		C204.1,1505.7,212.1,1510.2,221.7,1515.7z M1756.2,1253.1c0.7,0.3,1.4,0.6,2,0.9c1.7-2.6,3.5-5.1,5-7.8
		c9.5-16.6,18.8-33.3,28.3-49.9c18.5-32.4,37-64.8,55.6-97.2c2.5-4.4,3.8-8,0.9-13.1c-29.1-50.2-57.9-100.7-86.8-151
		c-1-1.7-2.5-3-5-5.8C1756.2,1038.4,1756.2,1145.8,1756.2,1253.1z M988.9,1962.9c53.9-31.6,108.3-61.4,162.7-95.5
		c-3.5-0.6-4.6-1-5.8-1c-105.3,0.1-210.7,0.3-316,0.5c-0.2,0-0.4,0.4-0.5,0.6c-0.1,0.3-0.1,0.6-0.5,2.3
		C881.9,1900.7,935.3,1931.7,988.9,1962.9z M1574.9,563.2c-0.6,0.5-1.1,1-1.7,1.5c53.3,93.3,106.7,186.7,160,280
		c0.6-0.2,1.3-0.4,1.9-0.6c0.2-2.1,0.7-4.2,0.7-6.2c0-57.8,0-115.6,0.1-173.4c0-5.3-1.5-8.8-6.4-11.6c-15.8-9-31.2-18.7-46.9-27.8
		c-32.8-19.1-65.7-38-98.6-57C1581.1,566.4,1578,564.9,1574.9,563.2z M1573.1,1619.5c0.6,0.6,1.2,1.1,1.7,1.7
		c2.7-1.4,5.6-2.7,8.2-4.3c16.2-9.6,32.2-19.4,48.5-28.9c32.3-18.8,64.5-37.6,97-56c5.5-3.1,7.4-6.7,7.4-12.9
		c-0.2-56.9-0.1-113.8-0.1-170.6c0-2.7-0.5-5.4-0.8-8.1c-0.7-0.2-1.5-0.4-2.2-0.6C1679.6,1433.1,1626.3,1526.3,1573.1,1619.5z
		 M828.6,314.7c0.3,0.8,0.6,1.7,0.9,2.5c104.7,0,209.4,0,314.1,0c1.6,0,3.2-0.2,4.7-0.4c0.2,0,0.5-0.3,0.6-0.5
		c0.2-0.3,0.2-0.6,0.4-1.6c-53.4-31.2-107-62.5-160.5-93.6C935.1,252.5,881.9,283.6,828.6,314.7z M558.4,338
		c-27.8,44.8-90.3,155.8-91.9,164c3.6-2,6.6-3.7,9.6-5.4c39.9-23.3,79.7-46.8,119.7-70c46.9-27.2,93.9-54.2,140.7-81.4
		c2.7-1.6,6.7-2.3,7.5-7.1C682,338,620.5,338,558.4,338z M242.9,1339.7c-0.2,4.2-0.5,7.5-0.5,10.8c0,52.7,0.6,105.4-0.4,158.1
		c-0.3,14.4,4,21.9,16.6,28.9c45.9,25.7,91.1,52.8,136.5,79.3c2.7,1.6,5.3,4.3,9.3,3.4C397.8,1604.9,248.7,1345.3,242.9,1339.7z
		 M1420.4,338.2c-16.4-2-178.9-1.2-185.6,0.8c0.1,0.6,0,1.5,0.4,1.7c56,33,112,66,168.2,98.7c35.5,20.7,71.3,40.9,107,61.3
		c0.2,0.1,0.6,0,0.8-0.1c0.3-0.1,0.5-0.4,1.4-1.2C1481.8,445.6,1451,391.7,1420.4,338.2z M404.8,564.9c-0.5-0.5-0.9-1-1.4-1.5
		c-1.7,0.8-3.4,1.4-5,2.3c-50.1,29.2-100.2,58.6-150.4,87.7c-4.7,2.7-5.8,5.9-5.8,10.8c0.1,58.1,0.1,116.2,0.1,174.4
		c0,1.9,0.6,3.9,1.4,8.2C298.3,751.4,351.6,658.1,404.8,564.9z M220.4,1255.6c1.1-3.1,1.7-3.9,1.7-4.7
		c-0.1-106.4-0.2-212.7-0.3-319.1c0-0.2-0.3-0.5-0.5-0.7c-0.3-0.2-0.6-0.2-1.7-0.4c-2,3.3-4.1,6.8-6.1,10.3
		c-23.3,40.7-46.7,81.4-70,122.2c-4.4,7.8-8.8,15.6-13.5,23.2c-2.2,3.7-2.6,6.7-0.3,10.6c5.1,8.5,9.6,17.3,14.5,25.9
		c17.4,30.5,34.8,61,52.2,91.5C204.1,1227.5,211.8,1240.6,220.4,1255.6z M467,1682.2c-0.4,0.5-0.9,1.1-1.3,1.6
		c2.1,4.3,4.1,8.6,6.5,12.8c27.2,47.6,54.6,95.2,81.7,142.9c2.6,4.6,5.6,6.8,11.2,6.8c57.4-0.2,114.9-0.1,172.3-0.2c2,0,4-0.5,6-0.7
		c0.1-0.6,0.2-1.1,0.3-1.7C651.5,1789.8,559.2,1736,467,1682.2z M1512.6,1683.6c-0.5-0.4-0.9-0.8-1.4-1.2c-1.9,0.9-3.9,1.5-5.7,2.6
		c-5.7,3.5-11.2,7.3-17,10.7c-55.9,32.7-111.8,65.3-167.7,97.8c-25.9,15.1-51.9,30-77.9,45c-2.9,1.7-5.6,3.6-10.2,6.6
		c4.5,0.5,6.6,0.9,8.6,0.9c57.1,0,114.3,0,171.4,0.1c5.5,0,8.7-1.7,11.4-6.5c12.1-21.8,24.4-43.4,36.8-64.9
		c14.6-25.5,29.4-50.8,44-76.3C1507.7,1693.6,1510,1688.6,1512.6,1683.6z"/>
	<path class="st0" d="M415.2,1091.7c0-82.7,63.2-155.7,154.4-156.1c89.3-0.3,154.8,70,155.6,156c0.8,84.5-68.5,157.6-155.6,157.3
		C481.8,1248.7,413.7,1173.8,415.2,1091.7z M715.2,1092.6c0.8-78.4-60.8-146.4-143.9-147.1c-80.6-0.7-145.5,62.9-146.6,145.6
		c-1,77.4,61.4,147.4,144.7,148C653.9,1239.7,716.5,1167.6,715.2,1092.6z"/>
	<path class="st0" d="M1562.6,1154.8c-4.5,0-8.5,0-13.6,0c0-19.3,0-38.3,0-58.3c-18-1.4-35-1.3-52.7-0.2c0,19.7,0,38.4,0,58.3
		c-5,0.3-9.2,0.5-14.1,0.7c0-42.3,0-83.7,0-125.8c4.2,0,8.4,0,13.7,0c0,17.4,0,34.8,0,53.2c18,1.6,34.9,1.1,52.9,0.4
		c0-18.6,0-36,0-53.9c5,0,9.1,0,13.8,0C1562.6,1071,1562.6,1112.6,1562.6,1154.8z"/>
	<path class="st0" d="M929.4,1029.4c4.8,0,8.8,0,13.6,0c0.2,3.4,0.6,6.5,0.6,9.6c0,25.2,0.1,50.4,0,75.6c0,5.1-0.5,10.2-1.4,15.2
		c-2.7,15-14.3,25.4-29.6,26.9c-3.5,0.3-7,0.4-10.5,0.3c-21.4-0.6-33.5-12.2-35.3-33.6c-0.3-3.8-0.2-7.7-0.2-11.5
		c0-23.9,0-47.9,0-71.8c0-3.4,0-6.9,0-10.8c5.1,0,9.1,0,14.5,0c0,3.6,0,7,0,10.4c0,25.2,0,50.4,0,75.6c0,3.2-0.1,6.4,0.4,9.6
		c2.6,18,23.9,26.8,38.8,16c4.4-3.2,6.8-7.6,7.5-12.9c0.7-5,1.1-10.2,1.2-15.2c0.1-23.9,0-47.9,0.1-71.8
		C928.9,1037.3,929.2,1033.5,929.4,1029.4z"/>
	<path class="st0" d="M1137.3,1064.2c-4.5,0-8.2,0-12.6,0c-0.8-3.4-1.4-6.8-2.4-10.1c-3.6-10.8-14.1-16.5-26-14.2
		c-10.7,2.1-17.1,11.1-16,22.6c0.6,6.1,3.6,11,8.6,14.2c4.5,2.9,9.5,5.1,14.4,7.4c4.3,2,9,3.4,13.2,5.5
		c16.9,8.3,23.1,19.1,21.7,37.7c-1,13.9-8.1,23.4-21.3,27.6c-11.9,3.7-24,3.5-35.3-2.5c-12.2-6.5-18.5-16.8-19.4-31.4
		c4.7,0,8.7,0,13.4,0c0.7,2.1,1.6,4.4,2.2,6.8c4.5,18.3,26.8,20.3,37.4,13.8c11.4-7,11.7-27.7,0.4-35.6c-4.4-3.1-9.6-5-14.5-7.2
		c-5.8-2.7-11.9-4.8-17.4-7.9c-16.2-9.3-22.3-25.9-16.1-42.5c5.7-15.2,22.6-24.1,39.9-21C1126.6,1030.9,1138.7,1045.4,1137.3,1064.2
		z"/>
	<path class="st0" d="M984.1,1154.8c-5.3,0-9.3,0-13.9,0c0-41.8,0-83.2,0-125.1c2.1-0.3,4.3-0.8,6.4-0.8c11.5-0.1,23-0.2,34.5,0
		c20.4,0.5,33.9,13.9,34.9,34.4c0.1,2.9,0.1,5.8,0,8.6c-1.1,19.5-13.4,32-32.9,32.8c-9.2,0.4-18.4,0.1-28.9,0.1
		C984.1,1122,984.1,1138.1,984.1,1154.8z M984.6,1092.2c9,0,17.5,0.2,26,0c12.3-0.4,19.7-7.7,20.8-20.4c1.4-15.8-4.5-27.8-16.3-29.5
		c-9.9-1.4-20.1-0.3-30.5-0.3C984.6,1058.9,984.6,1075,984.6,1092.2z"/>
	<path class="st0" d="M1292.2,1029.4c21.8,0,43,0,64.8,0c0,4.1,0,7.7,0,12.1c-16.9,0-33.1,0-50.6,0c-0.5,14-0.3,27.2-0.1,41.5
		c14.7,1.7,29,0,43.8,1.2c0.2,3.7,0.4,6.7,0.7,10.7c-14.7,1.8-29-0.3-44.2,1.4c-0.9,15.6-0.5,30.7-0.3,46.9c17.6,0,34,0,51.2,0
		c0,4.4,0,7.6,0,10.8c-9.2,2.1-56.9,2-65.3-0.2C1292.2,1112.6,1292.2,1071.3,1292.2,1029.4z"/>
	<path class="st0" d="M1457.5,1068c-4.7,0-8.8,0-13.2,0c-0.8-3.7-1.6-7-2.3-10.4c-2.1-9.7-7.6-16.2-17.7-17.6
		c-10.7-1.5-20.1,1.5-25.4,11.2c-3.1,5.7-5.6,12.5-5.9,18.9c-0.8,15-0.8,30,0,45c0.4,6.4,2.8,13.2,5.8,19
		c4.8,9.3,13.6,11.9,23.6,10.8c10.4-1.1,17.1-6.4,19.3-16.9c0.7-3.4,1.6-6.7,2.5-10.5c4.4,0,8.7,0,12.9,0
		c1.4,21.3-12.3,37.7-32.3,39.3c-26.4,2.1-44.4-12.9-46.5-40.5c-1.2-15.9-0.7-31.9,0-47.9c0.2-5.9,2.3-12,4.7-17.4
		c9.4-21.3,33.4-30.1,54.6-20.4C1450.5,1036.6,1458.1,1050.6,1457.5,1068z"/>
	<path class="st0" d="M1223.2,1041.6c-11.5,0-21.6,0-32.4,0c0-4.4,0-8,0-12.2c26.6,0,52.9,0,80,0c0,3.9,0,7.5,0,12
		c-10.8,0-21.2,0-32.8,0c0,38.1,0,75.3,0,113.2c-5.2,0-9.1,0-14.3,0c-0.9-12.4-0.3-24.7-0.4-37c-0.1-12.4,0-24.9,0-37.4
		C1223.2,1067.9,1223.2,1055.5,1223.2,1041.6z"/>
	<path class="st0" d="M790.4,1029.3c3.9,0,7.9,0,13.3,0c0,37.8,0,75.3,0,113.8c16.8,0,32.4,0,49,0c0.2,4.2,0.4,7.4,0.6,10.4
		c-7.9,2.3-51.5,2.8-62.5,0.9C788.4,1147.4,788,1039.8,790.4,1029.3z"/>
	<path class="st0" d="M503.4,1071.3c21.3,9.7,20.7,22.7,10.7,36.8c11.3,14.3,25.4,26.3,38.5,40c2.4-1.7,4.3-3.2,6.3-4.6
		c9.9-7,22.5-4.6,27.5,6.5c2.8,6.3,6.5,7.6,12.5,7.3c6.3-0.3,12.7-0.1,18.5-0.1c9-15.9,15.3-19.9,26.2-16.8
		c7.3,2.1,13,10.3,12.7,18.4c-0.3,8.6-6.2,15.4-15,17.5c-9.6,2.3-16.2-2.1-23.6-16.8c-7.5,0-15.7,0-23.9,0c-4,0-5.1,2.7-6.6,5.8
		c-4.9,9.9-13.3,13.6-22.7,10.5c-7.8-2.6-12.7-8.6-12.3-17.3c0.2-5.7-1.8-9.5-5.7-13.3c-11-10.7-21.8-21.5-32.3-32.7
		c-3.1-3.3-5.8-2.6-9.3-2.3c-13.2,1.1-22.6-9.5-20.2-22.5c0.9-5,3.6-8.8,7.8-11.5c2.4-1.5,5.1-2.6,8.9-4.6c0-7,0-14.5,0-22.1
		c0-4.1-3.3-4.9-6.2-6.3c-8.4-4.3-11.8-10.6-10.8-19.4c1.1-9.6,7.3-16.1,16.5-17.2c7.7-0.9,15.8,4.3,18.6,12.1
		c3.3,9,1.3,19.2-6.8,22.6c-9.2,3.9-9.9,10.1-9.3,18.1C503.6,1063.5,503.4,1067.6,503.4,1071.3z M502.6,1009
		c-8.2-0.1-16.1,7.8-16.5,16.6c-0.4,8.7,7.2,16.6,16.1,16.7c8.9,0.1,16.6-7.5,16.5-16.3C518.5,1017.1,511,1009.1,502.6,1009z
		 M502.9,1075.9c-9.2-0.2-16.8,7-16.8,15.9c0,8.6,7.1,15.7,15.8,15.9c9.2,0.2,16.7-6.9,16.7-15.9
		C518.7,1083.2,511.6,1076.1,502.9,1075.9z M586.4,1158.1c-0.1-8.6-7.2-15.8-15.9-16c-9.1-0.2-16.5,7.1-16.4,16.2
		c0.1,8.6,7.2,15.9,15.7,16.1C578.5,1174.7,586.4,1166.8,586.4,1158.1z M653.8,1158.6c0.2-8.9-6.3-15.9-15.2-16.4
		c-9.1-0.5-16.7,6.6-16.8,15.7c-0.1,9.1,7.2,16.7,16.1,16.6C646.5,1174.4,653.6,1167.3,653.8,1158.6z"/>
	<path class="st0" d="M585.7,1038.8c12.1,13.1,24.4,26.5,36.8,40c3.1-1.6,5.5-3,8-4.1c7.8-3.4,16.3-1.3,21.6,5.2
		c5.5,6.7,5.7,16.1,0.5,23.1c-5,6.7-13.6,9.2-21.3,6.2c-8.3-3.2-14.1-11.3-11.7-19.6c2.1-7.3-0.7-11.3-5-15.8
		c-10.3-10.8-20.4-21.9-30.6-32.9c-3,1.1-5.3,2-7.7,2.8c-8.1,2.8-16.3,0.3-21.1-6.4c-4.8-6.7-4.4-17.7,0.9-24.1
		c5-6.1,14.3-8.1,21.7-4.8c7.2,3.2,12,12.4,10.5,20.7C587.8,1032.1,586.7,1035.1,585.7,1038.8z M570.4,1042.4
		c8.9-0.1,16.3-8,15.9-16.8c-0.4-9-8.1-16.7-16.5-16.6c-8.5,0.1-15.8,8-15.8,17.1C554,1035.2,561.3,1042.5,570.4,1042.4z
		 M653.8,1091.8c0-8.9-6.6-15.7-15.5-15.9c-9.4-0.2-16.5,6.6-16.5,15.9c0,8.9,6.6,15.7,15.5,16
		C646.6,1107.9,653.7,1101.1,653.8,1091.8z"/>
	<path class="st0" d="M569.7,1073.1c10.3-0.2,18.9,8.2,19,18.4c0.1,10.2-8.4,18.8-18.7,18.8c-10,0-18-7.8-18.2-18
		C551.5,1081.7,559.3,1073.3,569.7,1073.1z M570.5,1107.7c8.8-0.2,15.8-7.1,15.9-15.8c0.1-9-7.3-16.2-16.6-16
		c-8.9,0.1-15.7,7-15.7,15.8C554,1100.9,561.2,1107.9,570.5,1107.7z"/>
	<path class="st0" d="M656.3,1026c0.1,10.3-8.7,19.2-18.8,19.1c-9.8-0.1-18.2-8.6-18.4-18.5c-0.2-11,8.5-20.3,18.8-20.2
		C648,1006.6,656.2,1015.4,656.3,1026z M653.8,1026.6c0.2-9.2-6.6-17.1-15.2-17.6c-8.8-0.5-16.7,7.5-16.8,17
		c-0.1,8.7,6.6,15.9,15.2,16.3C646,1042.8,653.6,1035.7,653.8,1026.6z"/>
	<path class="st0" d="M502.3,1140c11.1-0.1,18.6,7.5,18.4,18.6c-0.1,10.2-8.2,18.9-18.1,18.5c-11.1-0.5-18.6-8-18.5-19
		C484.2,1147.5,491.8,1140,502.3,1140z M502.1,1142.2c-8.6,0.2-15.9,7.5-16,15.9c-0.1,8.7,8,16.6,16.6,16.4
		c8.8-0.2,16.4-8.3,15.9-17C518.1,1148.8,510.8,1142,502.1,1142.2z"/>
	<path class="st0" d="M502.6,1009c8.4,0.1,15.9,8.1,16,17.1c0.1,8.8-7.6,16.4-16.5,16.3c-8.8-0.1-16.5-8.1-16.1-16.7
		C486.5,1016.8,494.4,1008.9,502.6,1009z"/>
	<path class="st0" d="M502.9,1075.9c8.7,0.2,15.8,7.3,15.8,15.9c0,9-7.5,16.1-16.7,15.9c-8.7-0.2-15.8-7.3-15.8-15.9
		C486.1,1082.9,493.7,1075.6,502.9,1075.9z"/>
	<path class="st0" d="M586.4,1158.1c0.1,8.7-7.9,16.6-16.6,16.4c-8.5-0.2-15.7-7.5-15.7-16.1c-0.1-9.1,7.3-16.4,16.4-16.2
		C579.1,1142.4,586.3,1149.6,586.4,1158.1z"/>
	<path class="st0" d="M653.8,1158.6c-0.2,8.7-7.3,15.8-15.9,15.9c-8.9,0.1-16.3-7.5-16.1-16.6c0.1-9.1,7.7-16.2,16.8-15.7
		C647.4,1142.7,654,1149.8,653.8,1158.6z"/>
	<path class="st0" d="M570.4,1042.4c-9.1,0.1-16.4-7.1-16.4-16.2c0.1-9.2,7.3-17,15.8-17.1c8.4-0.1,16.1,7.6,16.5,16.6
		C586.7,1034.4,579.3,1042.2,570.4,1042.4z"/>
	<path class="st0" d="M653.8,1091.8c0,9.3-7.2,16.1-16.5,15.9c-8.9-0.2-15.5-7.1-15.5-16c0-9.3,7.2-16.1,16.5-15.9
		C647.2,1076.1,653.8,1082.9,653.8,1091.8z"/>
	<path class="st0" d="M570.5,1107.7c-9.3,0.2-16.5-6.8-16.4-16c0-8.8,6.9-15.7,15.7-15.8c9.2-0.1,16.6,7.1,16.6,16
		C586.3,1100.5,579.3,1107.5,570.5,1107.7z"/>
	<path class="st0" d="M653.8,1026.6c-0.2,9.1-7.8,16.2-16.8,15.7c-8.6-0.4-15.3-7.6-15.2-16.3c0.1-9.5,8-17.5,16.8-17
		C647.2,1009.5,654,1017.4,653.8,1026.6z"/>
	<path class="st0" d="M502.1,1142.2c8.7-0.2,16,6.6,16.5,15.3c0.5,8.7-7.1,16.8-15.9,17c-8.7,0.2-16.7-7.7-16.6-16.4
		C486.2,1149.7,493.5,1142.4,502.1,1142.2z"/>
</g>
</svg>
